<svg xmlns="http://www.w3.org/2000/svg" xmlns:xlink="http://www.w3.org/1999/xlink" width="500" zoomAndPan="magnify" viewBox="0 0 375 374.999991" height="500" preserveAspectRatio="xMidYMid meet" version="1.0"><defs><g/><clipPath id="da83e59a4a"><path d="M 72 169 L 149.269531 169 L 149.269531 227.769531 L 72 227.769531 Z M 72 169 " clip-rule="nonzero"/></clipPath></defs><g clip-path="url(#da83e59a4a)"><path fill="#ef7e36" d="M 149.167969 169.855469 C 147.390625 172.308594 145.539062 174.691406 143.625 177.007812 C 144.171875 179.257812 143.554688 181.710938 141.84375 183.414062 L 99.882812 225.179688 C 97.28125 227.769531 92.96875 227.769531 90.367188 225.179688 L 77.703125 212.644531 C 75.855469 211.824219 74.214844 210.941406 72.980469 210.054688 C 74.144531 210.597656 75.308594 211.078125 76.609375 211.484375 C 78.113281 211.960938 79.757812 212.304688 81.332031 212.4375 C 84.136719 212.78125 87.082031 212.644531 89.957031 211.960938 C 111.589844 206.988281 129.316406 191.113281 142.117188 177.554688 L 142.1875 177.484375 C 142.597656 177.007812 143.007812 176.601562 143.417969 176.191406 C 145.402344 173.941406 147.390625 171.832031 149.167969 169.855469 " fill-opacity="1" fill-rule="evenodd"/></g><path fill="#3cabf1" d="M 148.894531 169.039062 C 144.992188 172.375 139.996094 176.191406 134.589844 179.871094 L 134.519531 179.871094 L 134.589844 179.871094 C 115.148438 193.019531 89.203125 205.488281 79.484375 197.859375 C 76.882812 195.8125 77.839844 191.726562 81.058594 191.042969 C 81.605469 190.910156 82.152344 190.839844 82.632812 190.703125 C 96.253906 187.636719 106.453125 180.6875 103.714844 168.765625 C 101.457031 158.886719 92.011719 154.59375 80.238281 157.316406 C 77.15625 158 74.214844 159.226562 71.542969 160.929688 C 69.011719 162.566406 66.75 164.609375 64.902344 166.925781 C 63.054688 169.242188 61.617188 171.898438 60.523438 174.691406 C 59.425781 177.554688 58.8125 180.550781 58.605469 183.617188 C 58.605469 184.09375 58.539062 184.503906 58.539062 184.980469 C 58.46875 188.183594 58.8125 191.453125 59.632812 194.519531 C 60.386719 197.175781 61.550781 199.699219 63.125 201.878906 C 61 199.289062 59.5625 196.425781 58.46875 193.429688 L 48.476562 183.414062 C 45.875 180.824219 45.875 176.53125 48.476562 173.875 L 90.4375 132.109375 C 93.039062 129.519531 97.351562 129.519531 99.953125 132.109375 L 119.527344 151.59375 C 121.992188 154.046875 122.746094 157.726562 121.375 160.929688 C 118.980469 166.652344 114.875 173.328125 109.191406 180.824219 C 115.902344 175.238281 122.0625 168.152344 127.605469 159.703125 L 130.960938 163.042969 C 126.648438 171.761719 116.3125 181.574219 100.292969 192.339844 C 111.863281 188.046875 123.226562 181.300781 134.519531 172.308594 C 136.367188 170.878906 139.039062 171.011719 140.679688 172.648438 L 141.640625 173.601562 C 143.898438 172.445312 146.429688 170.808594 148.894531 169.039062 " fill-opacity="1" fill-rule="evenodd"/><path fill="#3cabf1" d="M 73.9375 178.304688 C 74.214844 175.78125 77.019531 168.832031 82.085938 167.675781 C 84.960938 166.992188 87.765625 168.082031 88.382812 170.671875 C 89.273438 174.421875 85.097656 176.871094 81.261719 177.691406 C 78.457031 178.371094 75.652344 178.644531 73.9375 178.304688 Z M 73.9375 178.304688 " fill-opacity="1" fill-rule="evenodd"/><g fill="#3cabf1" fill-opacity="1"><g transform="translate(154.300482, 178.922815)"><g><path d="M 15.71875 -22.25 L 17.09375 -21.296875 C 16.6875 -19.617188 15.960938 -18.8125 14.921875 -18.875 L 7.5 -18.546875 L 7.46875 -17.984375 L 8.875 -17.875 L 10.59375 -18.046875 L 10.859375 -17.734375 L 11.140625 -17.703125 L 13.15625 -17.875 L 13.71875 -17.828125 L 13.703125 -17.546875 L 7.09375 -16.859375 L 6.578125 -13.1875 L 6.859375 -13.171875 L 14.59375 -13.78125 L 14.84375 -13.484375 L 14.828125 -13.203125 L 14.25 -13.25 L 14.25 -12.96875 L 16.203125 -12.53125 L 16.1875 -12.25 C 15.78125 -11.1875 13.0625 -10.328125 8.03125 -9.671875 L 5.171875 -9.578125 L 5.453125 -9.296875 L 4.078125 -5.6875 L 3.796875 -5.6875 L 3.953125 -8.234375 L 3.671875 -8.25 L 3.125 -4.3125 C 8.789062 -5.070312 12.796875 -5.375 15.140625 -5.21875 L 16.53125 -4.828125 L 16.515625 -4.265625 L 15.9375 -4.296875 L 16.1875 -4 L 16.140625 -3.140625 C 15.597656 -2.429688 14.441406 -2.128906 12.671875 -2.234375 L 12.640625 -1.953125 L 14.921875 -1.796875 L 14.875 -1.234375 L 1.65625 0.703125 L 1.375 0.6875 C 0.457031 0.488281 0 0.191406 0 -0.203125 L 0 -0.25 L 0.046875 -1.109375 L 0.828125 -4.171875 L 0.5625 -4.484375 L 1.140625 -4.46875 L 1.03125 -3.046875 L 1.3125 -3 C 1.425781 -3.945312 1.648438 -4.40625 1.984375 -4.375 L 1.71875 -4.6875 L 1.921875 -7.515625 L 1.359375 -7.5625 L 0.96875 -6.171875 L 1.28125 -6.4375 L 1.578125 -6.421875 L 1.453125 -4.71875 L 1.171875 -4.75 L 1.21875 -5.578125 L 0.9375 -5.59375 L 0.90625 -5.03125 L 0.625 -5.046875 L 0.65625 -5.609375 L 1.546875 -10.40625 L 1.265625 -10.421875 L 1.921875 -11.796875 L 1.65625 -12.09375 L 1.671875 -12.375 L 2.28125 -17.171875 L 2.5625 -16.875 L 2.84375 -16.859375 L 2.875 -17.421875 L 2.6875 -18.859375 L 3.140625 -21.40625 L 3.1875 -22.25 L 3.46875 -22.21875 L 3.75 -21.921875 L 4.046875 -22.1875 L 4.328125 -22.15625 L 4.59375 -21.875 L 4.890625 -22.140625 L 5.75 -22.078125 Z M 1.5 -9.84375 L 1.375 -7.859375 L 1.65625 -7.84375 L 1.78125 -9.8125 Z M 10.875 -9.46875 L 11.15625 -9.46875 L 11.125 -9.1875 L 5.984375 -8.671875 L 5.71875 -8.984375 L 5.734375 -9.25 L 8.296875 -9.375 L 8.28125 -9.09375 Z M 10.875 -9.46875 "/></g></g></g><g fill="#3cabf1" fill-opacity="1"><g transform="translate(171.476689, 178.922815)"><g><path d="M 4.8125 -22.703125 C 6.894531 -21.640625 7.9375 -20.125 7.9375 -18.15625 L 9.640625 -15.609375 L 10.5 -16.453125 L 10.78125 -16.453125 L 9.640625 -14.75 L 9.921875 -14.46875 L 10.203125 -14.46875 C 14.441406 -19.394531 17.191406 -21.859375 18.453125 -21.859375 C 19.140625 -21.859375 19.707031 -21.382812 20.15625 -20.4375 C 20.71875 -20.4375 21 -20.242188 21 -19.859375 C 21 -19.148438 19.390625 -17.539062 16.171875 -15.03125 L 12.203125 -10.78125 L 12.203125 -10.203125 C 13.898438 -7.398438 15.316406 -4.273438 16.453125 -0.828125 L 16.171875 0.015625 L 16.453125 0.015625 L 15.03125 2 L 14.1875 2 L 14.1875 1.4375 L 13.328125 2 L 9.640625 -6.796875 L 9.359375 -6.796875 C 7.515625 -4.554688 5.617188 -1.335938 3.671875 2.859375 L 3.109375 2.859375 L 3.109375 2.28125 L 3.390625 2 L 3.109375 1.71875 L 3.109375 1.4375 C 4.054688 -0.863281 5.757812 -3.988281 8.21875 -7.9375 L 8.5 -7.9375 L 8.5 -8.78125 C 4.71875 -3.550781 2.828125 -0.238281 2.828125 1.15625 L 1.6875 1.71875 C 1.070312 1.71875 0.410156 1.054688 -0.296875 -0.265625 C -0.296875 -1.335938 1.972656 -5.316406 6.515625 -12.203125 C 4.773438 -15.441406 3.734375 -17.898438 3.390625 -19.578125 L 3.671875 -19.578125 L 2.546875 -22.421875 L 2.828125 -22.421875 L 3.109375 -22.140625 Z M 17.03125 -22.421875 L 17.3125 -22.421875 L 13.046875 -18.453125 L 12.765625 -18.453125 L 12.765625 -18.734375 Z M 12.484375 -18.453125 L 12.765625 -18.453125 L 10.78125 -16.453125 L 10.78125 -16.734375 Z M 13.046875 -14.1875 L 12.484375 -13.328125 L 12.765625 -13.328125 L 13.328125 -14.1875 Z M 0.265625 -0.265625 L 6.515625 -10.203125 C 6.890625 -10.203125 7.078125 -10.582031 7.078125 -11.34375 L 6.796875 -11.34375 C 3.441406 -6.957031 1.265625 -3.265625 0.265625 -0.265625 Z M 13.328125 -0.265625 L 13.328125 0.015625 L 13.625 1.15625 L 13.90625 1.15625 L 13.90625 0.015625 L 13.625 -0.265625 Z M 13.328125 -0.265625 "/></g></g></g><g fill="#3cabf1" fill-opacity="1"><g transform="translate(191.025485, 178.922815)"><g><path d="M 3.421875 -23.40625 L 3.6875 -23.125 L 3.6875 -22.84375 L 3.984375 -23.125 L 5.390625 -23.125 C 5.773438 -23.125 5.957031 -22.648438 5.9375 -21.703125 L 6.21875 -21.703125 C 6.238281 -22.273438 6.4375 -22.5625 6.8125 -22.5625 C 7.195312 -22.5625 7.378906 -22.273438 7.359375 -21.703125 L 9.359375 -21.984375 L 12.390625 -21.421875 L 13.53125 -21.703125 C 14.976562 -21.703125 16.09375 -20.945312 16.875 -19.4375 L 16.578125 -17.4375 L 16.84375 -17.15625 L 16.84375 -16.875 L 16.21875 -15.171875 L 15.9375 -15.171875 L 15.953125 -15.734375 L 15.671875 -15.734375 C 14.203125 -12.171875 12.128906 -9.710938 9.453125 -8.359375 L 4.84375 -6.359375 L 4.6875 -1.53125 L 4.921875 -0.109375 C 4.546875 -0.109375 4.039062 0.832031 3.40625 2.71875 L 3.125 3 L 2.84375 3 L 0.59375 1.875 L 0.96875 -0.40625 L 0.15625 -1.53125 L 0.859375 -5.515625 L 0.5625 -5.796875 L 1.609375 -11.1875 L 1.3125 -11.484375 L 1.625 -11.765625 L 2.1875 -11.765625 L 2.15625 -10.625 L 2.4375 -10.625 L 2.484375 -12.046875 L 2.234375 -12.90625 L 2.8125 -12.90625 L 2.84375 -14.3125 L 2.28125 -14.890625 L 2.25 -13.75 L 1.96875 -13.75 C 2.007812 -14.957031 1.476562 -15.90625 0.375 -16.59375 L 0.140625 -18.296875 L 0.1875 -19.4375 C 2.664062 -20.445312 3.910156 -21.109375 3.921875 -21.421875 L 3.9375 -21.703125 L 3.390625 -22.265625 L 3.109375 -21.984375 L 2.84375 -23.125 L 3.140625 -23.40625 Z M 5.890625 -12.328125 L 6.46875 -12.328125 C 8.90625 -13.359375 11.039062 -15.0625 12.875 -17.4375 L 12.03125 -17.4375 C 8.226562 -17.1875 6.316406 -16.617188 6.296875 -15.734375 Z M 13.125 -16.3125 C 12.53125 -15.238281 10.109375 -13.628906 5.859375 -11.484375 L 5.578125 -11.1875 L 5.578125 -10.90625 L 6.15625 -10.90625 C 8.945312 -11.769531 11.367188 -13.570312 13.421875 -16.3125 Z M 1.59375 -10.34375 L 1.578125 -10.0625 L 1.84375 -9.78125 L 1.546875 -9.484375 L 1.515625 -8.921875 L 2.09375 -8.921875 L 2.15625 -10.34375 Z M 1.59375 -10.34375 "/></g></g></g><g fill="#3cabf1" fill-opacity="1"><g transform="translate(208.001192, 178.922815)"><g><path d="M 15.71875 -22.25 L 17.09375 -21.296875 C 16.6875 -19.617188 15.960938 -18.8125 14.921875 -18.875 L 7.5 -18.546875 L 7.46875 -17.984375 L 8.875 -17.875 L 10.59375 -18.046875 L 10.859375 -17.734375 L 11.140625 -17.703125 L 13.15625 -17.875 L 13.71875 -17.828125 L 13.703125 -17.546875 L 7.09375 -16.859375 L 6.578125 -13.1875 L 6.859375 -13.171875 L 14.59375 -13.78125 L 14.84375 -13.484375 L 14.828125 -13.203125 L 14.25 -13.25 L 14.25 -12.96875 L 16.203125 -12.53125 L 16.1875 -12.25 C 15.78125 -11.1875 13.0625 -10.328125 8.03125 -9.671875 L 5.171875 -9.578125 L 5.453125 -9.296875 L 4.078125 -5.6875 L 3.796875 -5.6875 L 3.953125 -8.234375 L 3.671875 -8.25 L 3.125 -4.3125 C 8.789062 -5.070312 12.796875 -5.375 15.140625 -5.21875 L 16.53125 -4.828125 L 16.515625 -4.265625 L 15.9375 -4.296875 L 16.1875 -4 L 16.140625 -3.140625 C 15.597656 -2.429688 14.441406 -2.128906 12.671875 -2.234375 L 12.640625 -1.953125 L 14.921875 -1.796875 L 14.875 -1.234375 L 1.65625 0.703125 L 1.375 0.6875 C 0.457031 0.488281 0 0.191406 0 -0.203125 L 0 -0.25 L 0.046875 -1.109375 L 0.828125 -4.171875 L 0.5625 -4.484375 L 1.140625 -4.46875 L 1.03125 -3.046875 L 1.3125 -3 C 1.425781 -3.945312 1.648438 -4.40625 1.984375 -4.375 L 1.71875 -4.6875 L 1.921875 -7.515625 L 1.359375 -7.5625 L 0.96875 -6.171875 L 1.28125 -6.4375 L 1.578125 -6.421875 L 1.453125 -4.71875 L 1.171875 -4.75 L 1.21875 -5.578125 L 0.9375 -5.59375 L 0.90625 -5.03125 L 0.625 -5.046875 L 0.65625 -5.609375 L 1.546875 -10.40625 L 1.265625 -10.421875 L 1.921875 -11.796875 L 1.65625 -12.09375 L 1.671875 -12.375 L 2.28125 -17.171875 L 2.5625 -16.875 L 2.84375 -16.859375 L 2.875 -17.421875 L 2.6875 -18.859375 L 3.140625 -21.40625 L 3.1875 -22.25 L 3.46875 -22.21875 L 3.75 -21.921875 L 4.046875 -22.1875 L 4.328125 -22.15625 L 4.59375 -21.875 L 4.890625 -22.140625 L 5.75 -22.078125 Z M 1.5 -9.84375 L 1.375 -7.859375 L 1.65625 -7.84375 L 1.78125 -9.8125 Z M 10.875 -9.46875 L 11.15625 -9.46875 L 11.125 -9.1875 L 5.984375 -8.671875 L 5.71875 -8.984375 L 5.734375 -9.25 L 8.296875 -9.375 L 8.28125 -9.09375 Z M 10.875 -9.46875 "/></g></g></g><g fill="#3cabf1" fill-opacity="1"><g transform="translate(225.177399, 178.922815)"><g><path d="M 5.78125 -22.125 L 7.765625 -20.421875 C 7.765625 -20.984375 7.957031 -21.265625 8.34375 -21.265625 L 8.625 -21.265625 L 12.59375 -11.046875 L 12.59375 -10.46875 L 12.3125 -10.46875 L 11.75 -12.1875 L 11.46875 -12.1875 L 11.46875 -11.609375 L 13.453125 -6.78125 L 13.734375 -6.78125 C 14.492188 -11.707031 15.585938 -16.847656 17.015625 -22.203125 L 17.859375 -21.640625 L 18.71875 -21.921875 L 20.421875 -21.0625 L 20.421875 -20.78125 C 19.847656 -20.78125 19.5625 -20.40625 19.5625 -19.65625 L 19.84375 -19.65625 L 20.140625 -19.359375 L 20.421875 -19.359375 L 20.703125 -20.78125 L 21.265625 -20.78125 L 21.265625 -20.5 L 20.984375 -20.21875 L 21.265625 -19.9375 L 21.265625 -19.65625 C 19.835938 -15.269531 18.554688 -8.988281 17.421875 -0.8125 L 16.859375 -0.8125 L 17.421875 -5.359375 C 17.046875 -5.359375 16.476562 -3.5625 15.71875 0.03125 C 15.019531 0.601562 14.359375 0.890625 13.734375 0.890625 L 13.734375 1.453125 L 13.453125 1.453125 C 13.453125 1.078125 13.070312 0.890625 12.3125 0.890625 L 12.3125 -1.109375 C 12.3125 -1.960938 10.421875 -6.695312 6.640625 -15.3125 L 6.34375 -15.3125 C 5.59375 -11.9375 4.929688 -7.390625 4.359375 -1.671875 L 4.078125 -1.953125 C 2.941406 -1.617188 2.375 -1.144531 2.375 -0.53125 L 1.796875 -0.53125 C 1.421875 -1.25 1.234375 -2.484375 1.234375 -4.234375 L 0.953125 -4.234375 L 0.953125 -1.671875 L 0.390625 -1.671875 L 0.09375 -3.09375 C 0.09375 -8.238281 1.234375 -14.488281 3.515625 -21.84375 Z M 1.796875 -15.015625 L 1.796875 -14.734375 L 2.09375 -14.453125 L 1.796875 -14.171875 L 1.796875 -13.59375 L 2.09375 -13.59375 L 2.375 -14.734375 L 2.09375 -15.015625 Z M 12.59375 -10.46875 C 13.082031 -10.46875 13.460938 -9.710938 13.734375 -8.203125 L 13.734375 -7.921875 L 13.453125 -7.921875 Z M 12.59375 -10.46875 "/></g></g></g><g fill="#3cabf1" fill-opacity="1"><g transform="translate(246.614241, 178.922815)"><g><path d="M 9.125 -22.671875 C 9.625 -22.296875 11.21875 -22.109375 13.90625 -22.109375 L 13.890625 -21.828125 L 11.890625 -21.828125 L 11.875 -21.53125 C 14.25 -21.53125 15.734375 -20.960938 16.328125 -19.828125 L 16.296875 -19.265625 L 14.875 -19.265625 L 14.859375 -18.984375 L 16.828125 -18.703125 L 16.8125 -18.40625 L 15.109375 -18.40625 L 15.09375 -18.125 C 15.65625 -18.125 15.925781 -17.9375 15.90625 -17.5625 C 12.53125 -17.5625 9.515625 -16.332031 6.859375 -13.875 L 6.84375 -13.578125 C 10.507812 -12.597656 13.414062 -10.421875 15.5625 -7.046875 L 15.53125 -6.765625 C 14.84375 -4.316406 12.910156 -2.046875 9.734375 0.046875 L 8 0.328125 L 7.984375 0.625 L 8.5625 0.625 C 8.53125 1.132812 6.789062 1.703125 3.34375 2.328125 L 3.375 1.75 L 4.796875 1.75 L 4.828125 1.46875 C 3.609375 1.46875 2.507812 0.804688 1.53125 -0.515625 C 0.6875 -0.953125 0.265625 -1.78125 0.265625 -3 C 0.265625 -3.113281 0.269531 -3.234375 0.28125 -3.359375 L 1.171875 -3.921875 L 1.984375 -3.359375 L 2.5625 -3.359375 C 7.90625 -4.191406 10.660156 -5.894531 10.828125 -8.46875 C 8.585938 -9.601562 7.101562 -10.171875 6.375 -10.171875 L 6.359375 -9.890625 L 3.578125 -11.03125 L 3.84375 -10.75 L 3.828125 -10.171875 C 1.460938 -11.910156 0.3125 -13.238281 0.375 -14.15625 L 2.59375 -18.125 L 4.078125 -19.265625 L 4.046875 -18.703125 Z M 5.25 -15 L 5.234375 -14.71875 L 10.25 -17.84375 L 12.546875 -18.40625 L 12.578125 -18.984375 L 12.015625 -18.984375 C 9.015625 -17.867188 6.757812 -16.539062 5.25 -15 Z M 6.8125 -3.359375 L 7.09375 -3.359375 L 7.703125 -3.921875 L 7.421875 -3.921875 Z M 11.9375 -3.359375 L 10.703125 -1.9375 L 11 -1.9375 L 12.21875 -3.359375 Z M 8.375 -1.09375 L 8.375 -0.796875 L 8.65625 -0.796875 L 9.84375 -1.65625 Z M 5.140625 0.90625 L 5.125 1.1875 L 6.265625 1.1875 L 7.703125 0.90625 L 7.703125 0.625 L 7.421875 0.625 Z M 5.140625 0.90625 "/></g></g></g><g fill="#3cabf1" fill-opacity="1"><g transform="translate(263.088697, 178.922815)"><g><path d="M 15.71875 -22.25 L 17.09375 -21.296875 C 16.6875 -19.617188 15.960938 -18.8125 14.921875 -18.875 L 7.5 -18.546875 L 7.46875 -17.984375 L 8.875 -17.875 L 10.59375 -18.046875 L 10.859375 -17.734375 L 11.140625 -17.703125 L 13.15625 -17.875 L 13.71875 -17.828125 L 13.703125 -17.546875 L 7.09375 -16.859375 L 6.578125 -13.1875 L 6.859375 -13.171875 L 14.59375 -13.78125 L 14.84375 -13.484375 L 14.828125 -13.203125 L 14.25 -13.25 L 14.25 -12.96875 L 16.203125 -12.53125 L 16.1875 -12.25 C 15.78125 -11.1875 13.0625 -10.328125 8.03125 -9.671875 L 5.171875 -9.578125 L 5.453125 -9.296875 L 4.078125 -5.6875 L 3.796875 -5.6875 L 3.953125 -8.234375 L 3.671875 -8.25 L 3.125 -4.3125 C 8.789062 -5.070312 12.796875 -5.375 15.140625 -5.21875 L 16.53125 -4.828125 L 16.515625 -4.265625 L 15.9375 -4.296875 L 16.1875 -4 L 16.140625 -3.140625 C 15.597656 -2.429688 14.441406 -2.128906 12.671875 -2.234375 L 12.640625 -1.953125 L 14.921875 -1.796875 L 14.875 -1.234375 L 1.65625 0.703125 L 1.375 0.6875 C 0.457031 0.488281 0 0.191406 0 -0.203125 L 0 -0.25 L 0.046875 -1.109375 L 0.828125 -4.171875 L 0.5625 -4.484375 L 1.140625 -4.46875 L 1.03125 -3.046875 L 1.3125 -3 C 1.425781 -3.945312 1.648438 -4.40625 1.984375 -4.375 L 1.71875 -4.6875 L 1.921875 -7.515625 L 1.359375 -7.5625 L 0.96875 -6.171875 L 1.28125 -6.4375 L 1.578125 -6.421875 L 1.453125 -4.71875 L 1.171875 -4.75 L 1.21875 -5.578125 L 0.9375 -5.59375 L 0.90625 -5.03125 L 0.625 -5.046875 L 0.65625 -5.609375 L 1.546875 -10.40625 L 1.265625 -10.421875 L 1.921875 -11.796875 L 1.65625 -12.09375 L 1.671875 -12.375 L 2.28125 -17.171875 L 2.5625 -16.875 L 2.84375 -16.859375 L 2.875 -17.421875 L 2.6875 -18.859375 L 3.140625 -21.40625 L 3.1875 -22.25 L 3.46875 -22.21875 L 3.75 -21.921875 L 4.046875 -22.1875 L 4.328125 -22.15625 L 4.59375 -21.875 L 4.890625 -22.140625 L 5.75 -22.078125 Z M 1.5 -9.84375 L 1.375 -7.859375 L 1.65625 -7.84375 L 1.78125 -9.8125 Z M 10.875 -9.46875 L 11.15625 -9.46875 L 11.125 -9.1875 L 5.984375 -8.671875 L 5.71875 -8.984375 L 5.734375 -9.25 L 8.296875 -9.375 L 8.28125 -9.09375 Z M 10.875 -9.46875 "/></g></g></g><g fill="#ef7e36" fill-opacity="1"><g transform="translate(154.300482, 211.356226)"><g><path d="M 20.375 -22.84375 C 20.050781 -22.601562 19.671875 -22.425781 19.234375 -22.3125 C 18.804688 -22.195312 18.234375 -22.140625 17.515625 -22.140625 C 16.796875 -22.140625 15.863281 -22.1875 14.71875 -22.28125 C 14.445312 -21.5625 14.175781 -20.71875 13.90625 -19.75 L 11.984375 -13.203125 C 9.609375 -5.359375 7.078125 -0.957031 4.390625 0 C 4.203125 0.0703125 3.957031 0.109375 3.65625 0.109375 C 3.363281 0.109375 3.125 0.0703125 2.9375 0 C 2.757812 -0.0625 2.609375 -0.148438 2.484375 -0.265625 C 2.242188 -0.460938 2.125 -0.660156 2.125 -0.859375 C 2.125 -1.066406 2.171875 -1.203125 2.265625 -1.265625 L 2.703125 -1.53125 C 4.304688 -2.582031 5.78125 -5.367188 7.125 -9.890625 L 8.328125 -13.96875 C 9.398438 -17.632812 10.40625 -20.515625 11.34375 -22.609375 C 10.46875 -22.679688 9.800781 -22.71875 9.34375 -22.71875 C 8.03125 -22.71875 7.082031 -22.535156 6.5 -22.171875 C 5.925781 -21.804688 5.523438 -21.40625 5.296875 -20.96875 C 5.078125 -20.539062 4.960938 -20.242188 4.953125 -20.078125 C 4.910156 -19.765625 4.804688 -19.566406 4.640625 -19.484375 C 4.472656 -19.398438 4.269531 -19.359375 4.03125 -19.359375 C 3.789062 -19.359375 3.539062 -19.445312 3.28125 -19.625 C 3.03125 -19.800781 2.820312 -20.019531 2.65625 -20.28125 C 2.300781 -20.832031 2.160156 -21.445312 2.234375 -22.125 C 2.316406 -22.8125 2.539062 -23.398438 2.90625 -23.890625 C 3.28125 -24.390625 3.726562 -24.796875 4.25 -25.109375 C 5.195312 -25.691406 6.195312 -25.984375 7.25 -25.984375 C 8.300781 -25.984375 9.296875 -25.929688 10.234375 -25.828125 C 11.171875 -25.722656 12.109375 -25.601562 13.046875 -25.46875 C 15.535156 -25.132812 17.117188 -24.96875 17.796875 -24.96875 C 18.472656 -24.96875 18.972656 -25.003906 19.296875 -25.078125 C 19.628906 -25.160156 19.910156 -25.28125 20.140625 -25.4375 C 20.378906 -25.59375 20.546875 -25.691406 20.640625 -25.734375 C 20.734375 -25.785156 20.890625 -25.8125 21.109375 -25.8125 C 21.441406 -25.8125 21.582031 -25.554688 21.53125 -25.046875 C 21.488281 -24.546875 21.367188 -24.113281 21.171875 -23.75 C 20.972656 -23.382812 20.707031 -23.082031 20.375 -22.84375 Z M 20.375 -22.84375 "/></g></g></g><g fill="#ef7e36" fill-opacity="1"><g transform="translate(170.440771, 211.356226)"><g><path d="M 1.265625 -0.40625 C 1.046875 -0.570312 0.867188 -0.753906 0.734375 -0.953125 C 0.597656 -1.160156 0.523438 -1.335938 0.515625 -1.484375 C 0.503906 -1.640625 0.535156 -1.828125 0.609375 -2.046875 C 0.679688 -2.265625 0.78125 -2.53125 0.90625 -2.84375 C 3.175781 -8.4375 4.3125 -12.191406 4.3125 -14.109375 C 4.28125 -14.640625 4.097656 -15.015625 3.765625 -15.234375 L 3.421875 -15.46875 C 3.328125 -15.550781 3.273438 -15.6875 3.265625 -15.875 C 3.253906 -16.070312 3.320312 -16.257812 3.46875 -16.4375 C 3.613281 -16.613281 3.804688 -16.769531 4.046875 -16.90625 C 4.523438 -17.164062 5.015625 -17.296875 5.515625 -17.296875 C 6.023438 -17.296875 6.421875 -17.238281 6.703125 -17.125 C 6.992188 -17.007812 7.238281 -16.859375 7.4375 -16.671875 C 7.851562 -16.273438 8.0625 -15.851562 8.0625 -15.40625 C 8.070312 -14.957031 8.023438 -14.503906 7.921875 -14.046875 C 7.816406 -13.585938 7.691406 -13.140625 7.546875 -12.703125 C 7.398438 -12.265625 7.253906 -11.847656 7.109375 -11.453125 C 6.972656 -11.054688 6.878906 -10.765625 6.828125 -10.578125 C 6.742188 -10.179688 6.710938 -9.9375 6.734375 -9.84375 C 7.003906 -10.070312 7.164062 -10.300781 7.21875 -10.53125 L 7.875 -11.765625 C 9.320312 -14.367188 10.734375 -16.09375 12.109375 -16.9375 C 12.515625 -17.175781 13 -17.296875 13.5625 -17.296875 C 14.125 -17.296875 14.578125 -17.097656 14.921875 -16.703125 C 15.265625 -16.304688 15.441406 -15.867188 15.453125 -15.390625 C 15.472656 -14.910156 15.441406 -14.507812 15.359375 -14.1875 C 15.273438 -13.875 15.148438 -13.578125 14.984375 -13.296875 C 14.617188 -12.671875 14.175781 -12.359375 13.65625 -12.359375 C 13.507812 -12.359375 13.375 -12.410156 13.25 -12.515625 L 12.875 -12.828125 C 12.507812 -13.148438 12.15625 -13.3125 11.8125 -13.3125 C 11.476562 -13.3125 11.066406 -13.085938 10.578125 -12.640625 C 10.097656 -12.203125 9.597656 -11.628906 9.078125 -10.921875 C 7.316406 -8.597656 5.878906 -5.992188 4.765625 -3.109375 L 4.03125 -1.171875 C 3.832031 -0.691406 3.660156 -0.347656 3.515625 -0.140625 C 3.378906 0.0664062 3.164062 0.171875 2.875 0.171875 C 2.59375 0.171875 2.3125 0.113281 2.03125 0 C 1.75 -0.101562 1.492188 -0.238281 1.265625 -0.40625 Z M 1.265625 -0.40625 "/></g></g></g><g fill="#ef7e36" fill-opacity="1"><g transform="translate(184.392262, 211.356226)"><g><path d="M 14.09375 -4.4375 C 14.09375 -3.414062 14.457031 -2.90625 15.1875 -2.90625 C 15.6875 -2.90625 16.097656 -2.984375 16.421875 -3.140625 C 16.753906 -3.296875 16.976562 -3.375 17.09375 -3.375 C 17.320312 -3.375 17.4375 -3.25 17.4375 -3 C 17.4375 -2.050781 16.9375 -1.226562 15.9375 -0.53125 C 14.875 0.1875 13.789062 0.363281 12.6875 0 C 11.96875 -0.257812 11.4375 -0.8125 11.09375 -1.65625 C 10.925781 -2.09375 10.84375 -2.488281 10.84375 -2.84375 C 10.84375 -3.414062 10.894531 -4.023438 11 -4.671875 C 9.96875 -2.554688 8.679688 -1.097656 7.140625 -0.296875 C 6.523438 0.015625 5.875 0.171875 5.1875 0.171875 C 4.5 0.171875 3.898438 0.03125 3.390625 -0.25 C 2.890625 -0.539062 2.457031 -0.9375 2.09375 -1.4375 C 1.375 -2.476562 1.046875 -3.789062 1.109375 -5.375 C 1.179688 -7.363281 1.769531 -9.3125 2.875 -11.21875 C 3.882812 -13 5.160156 -14.453125 6.703125 -15.578125 C 8.253906 -16.722656 9.703125 -17.296875 11.046875 -17.296875 C 12.398438 -17.296875 13.488281 -16.675781 14.3125 -15.4375 C 15.082031 -16.675781 15.757812 -17.296875 16.34375 -17.296875 C 16.976562 -17.296875 17.457031 -17.175781 17.78125 -16.9375 C 18.394531 -16.5 18.613281 -16.109375 18.4375 -15.765625 C 15.644531 -10.046875 14.207031 -6.484375 14.125 -5.078125 C 14.101562 -4.878906 14.09375 -4.664062 14.09375 -4.4375 Z M 4.828125 -4.375 C 4.828125 -3.039062 5.253906 -2.375 6.109375 -2.375 C 6.765625 -2.375 7.570312 -2.929688 8.53125 -4.046875 C 9.9375 -5.679688 11.175781 -7.882812 12.25 -10.65625 C 12.601562 -11.53125 12.894531 -12.398438 13.125 -13.265625 C 13.082031 -14.023438 12.765625 -14.582031 12.171875 -14.9375 C 11.972656 -15.0625 11.675781 -15.125 11.28125 -15.125 C 10.882812 -15.125 10.421875 -14.976562 9.890625 -14.6875 C 9.359375 -14.394531 8.84375 -14 8.34375 -13.5 C 7.851562 -13 7.394531 -12.40625 6.96875 -11.71875 C 6.539062 -11.03125 6.164062 -10.285156 5.84375 -9.484375 C 5.164062 -7.773438 4.828125 -6.070312 4.828125 -4.375 Z M 4.828125 -4.375 "/></g></g></g><g fill="#ef7e36" fill-opacity="1"><g transform="translate(202.921848, 211.356226)"><g><path d="M 1.125 -5.765625 C 1.15625 -6.734375 1.3125 -7.695312 1.59375 -8.65625 C 1.875 -9.625 2.25 -10.535156 2.71875 -11.390625 C 3.195312 -12.253906 3.757812 -13.046875 4.40625 -13.765625 C 5.0625 -14.492188 5.773438 -15.117188 6.546875 -15.640625 C 8.148438 -16.742188 9.835938 -17.296875 11.609375 -17.296875 C 13.429688 -17.296875 14.671875 -16.566406 15.328125 -15.109375 C 15.566406 -14.578125 15.675781 -13.976562 15.65625 -13.3125 C 15.644531 -12.65625 15.535156 -12.050781 15.328125 -11.5 C 15.128906 -10.945312 14.878906 -10.457031 14.578125 -10.03125 C 13.898438 -9.050781 13.21875 -8.5625 12.53125 -8.5625 C 11.757812 -8.5625 11.191406 -8.769531 10.828125 -9.1875 C 10.503906 -9.550781 10.398438 -9.976562 10.515625 -10.46875 C 10.554688 -10.613281 10.660156 -10.742188 10.828125 -10.859375 C 10.992188 -10.984375 11.203125 -11.171875 11.453125 -11.421875 C 12.179688 -12.179688 12.5625 -13.066406 12.59375 -14.078125 C 12.613281 -14.773438 12.191406 -15.125 11.328125 -15.125 C 10.390625 -15.125 9.410156 -14.597656 8.390625 -13.546875 C 6.890625 -12.023438 5.832031 -10.070312 5.21875 -7.6875 C 4.6875 -5.613281 4.789062 -4.097656 5.53125 -3.140625 C 5.957031 -2.585938 6.546875 -2.3125 7.296875 -2.3125 C 8.554688 -2.3125 9.769531 -2.753906 10.9375 -3.640625 C 11.289062 -3.921875 11.578125 -4.203125 11.796875 -4.484375 C 12.023438 -4.773438 12.234375 -4.921875 12.421875 -4.921875 C 12.609375 -4.921875 12.765625 -4.828125 12.890625 -4.640625 C 13.023438 -4.460938 13.09375 -4.226562 13.09375 -3.9375 C 13.09375 -3.28125 12.796875 -2.632812 12.203125 -2 C 10.691406 -0.550781 8.875 0.171875 6.75 0.171875 C 4.925781 0.171875 3.519531 -0.347656 2.53125 -1.390625 C 1.550781 -2.410156 1.082031 -3.867188 1.125 -5.765625 Z M 1.125 -5.765625 "/></g></g></g><g fill="#ef7e36" fill-opacity="1"><g transform="translate(218.844928, 211.356226)"><g><path d="M 12.265625 0.15625 C 9.734375 0.15625 7.71875 -2.242188 6.21875 -7.046875 C 5.625 -5.953125 5.132812 -4.960938 4.75 -4.078125 L 3.75 -1.796875 C 3.457031 -1.179688 3.1875 -0.695312 2.9375 -0.34375 C 2.6875 0 2.40625 0.171875 2.09375 0.171875 C 1.78125 0.171875 1.492188 0.113281 1.234375 0 C 0.984375 -0.101562 0.757812 -0.238281 0.5625 -0.40625 C 0.175781 -0.757812 -0.015625 -1.148438 -0.015625 -1.578125 C -0.015625 -1.742188 0.0976562 -2.070312 0.328125 -2.5625 L 1 -3.90625 C 3.082031 -8.195312 4.972656 -13.632812 6.671875 -20.21875 C 7.296875 -22.644531 7.742188 -24.828125 8.015625 -26.765625 C 8.140625 -27.703125 8.597656 -28.171875 9.390625 -28.171875 C 9.859375 -28.171875 10.25 -28.046875 10.5625 -27.796875 C 11.164062 -27.316406 11.453125 -26.800781 11.421875 -26.25 C 11.398438 -25.707031 11.328125 -25.085938 11.203125 -24.390625 C 11.078125 -23.703125 10.90625 -22.945312 10.6875 -22.125 C 10.476562 -21.3125 10.238281 -20.457031 9.96875 -19.5625 C 9.25 -17.238281 8.710938 -15.582031 8.359375 -14.59375 L 6.78125 -10.265625 C 6.582031 -9.742188 6.425781 -9.367188 6.3125 -9.140625 C 8.894531 -10.160156 10.832031 -11.316406 12.125 -12.609375 C 12.90625 -13.390625 13.296875 -14.117188 13.296875 -14.796875 C 13.296875 -15.148438 13.179688 -15.40625 12.953125 -15.5625 C 12.722656 -15.71875 12.566406 -15.835938 12.484375 -15.921875 C 12.398438 -16.003906 12.394531 -16.148438 12.46875 -16.359375 C 12.539062 -16.578125 12.75 -16.785156 13.09375 -16.984375 C 13.445312 -17.191406 13.867188 -17.296875 14.359375 -17.296875 C 14.847656 -17.296875 15.253906 -17.25 15.578125 -17.15625 C 15.910156 -17.070312 16.195312 -16.929688 16.4375 -16.734375 C 16.988281 -16.347656 17.265625 -15.796875 17.265625 -15.078125 C 17.265625 -14.367188 17.113281 -13.71875 16.8125 -13.125 C 16.507812 -12.53125 16.039062 -11.953125 15.40625 -11.390625 C 14.144531 -10.328125 12.128906 -9.289062 9.359375 -8.28125 C 9.703125 -6.800781 10.335938 -5.5 11.265625 -4.375 C 12.140625 -3.3125 12.945312 -2.78125 13.6875 -2.78125 C 14.070312 -2.78125 14.40625 -2.84375 14.6875 -2.96875 L 15.28125 -3.28125 C 15.40625 -3.34375 15.523438 -3.375 15.640625 -3.375 C 15.921875 -3.375 16.0625 -3.207031 16.0625 -2.875 C 16.0625 -2.582031 16.007812 -2.328125 15.90625 -2.109375 C 15.800781 -1.890625 15.65625 -1.65625 15.46875 -1.40625 C 15.289062 -1.164062 15.054688 -0.929688 14.765625 -0.703125 C 14.046875 -0.128906 13.210938 0.15625 12.265625 0.15625 Z M 12.265625 0.15625 "/></g></g></g><g fill="#ef7e36" fill-opacity="1"><g transform="translate(235.87076, 211.356226)"><g><path d="M 1.359375 -5.84375 C 1.410156 -6.8125 1.570312 -7.738281 1.84375 -8.625 C 2.125 -9.507812 2.5 -10.367188 2.96875 -11.203125 C 3.4375 -12.035156 3.984375 -12.820312 4.609375 -13.5625 C 5.242188 -14.300781 5.925781 -14.945312 6.65625 -15.5 C 8.25 -16.695312 9.859375 -17.296875 11.484375 -17.296875 C 13.390625 -17.296875 14.660156 -16.507812 15.296875 -14.9375 C 15.515625 -14.40625 15.617188 -13.773438 15.609375 -13.046875 C 15.597656 -12.316406 15.457031 -11.640625 15.1875 -11.015625 C 14.925781 -10.398438 14.554688 -9.835938 14.078125 -9.328125 C 13.609375 -8.828125 13.046875 -8.375 12.390625 -7.96875 C 11.742188 -7.570312 11.035156 -7.234375 10.265625 -6.953125 C 8.679688 -6.390625 6.988281 -6.097656 5.1875 -6.078125 C 5.144531 -5.921875 5.117188 -5.6875 5.109375 -5.375 C 5.097656 -5.0625 5.128906 -4.710938 5.203125 -4.328125 C 5.285156 -3.953125 5.421875 -3.613281 5.609375 -3.3125 C 6.003906 -2.644531 6.582031 -2.3125 7.34375 -2.3125 C 8.632812 -2.3125 9.894531 -2.6875 11.125 -3.4375 C 11.550781 -3.695312 11.898438 -3.960938 12.171875 -4.234375 C 12.453125 -4.503906 12.691406 -4.640625 12.890625 -4.640625 C 13.085938 -4.640625 13.257812 -4.519531 13.40625 -4.28125 C 13.5625 -4.039062 13.640625 -3.769531 13.640625 -3.46875 C 13.640625 -2.882812 13.472656 -2.375 13.140625 -1.9375 C 11.734375 -0.53125 9.644531 0.171875 6.875 0.171875 C 5.238281 0.171875 3.925781 -0.316406 2.9375 -1.296875 C 1.820312 -2.410156 1.296875 -3.925781 1.359375 -5.84375 Z M 11.125 -15.078125 C 9.945312 -15.078125 8.820312 -14.273438 7.75 -12.671875 C 6.832031 -11.285156 6.097656 -9.644531 5.546875 -7.75 C 7.398438 -7.9375 9.015625 -8.671875 10.390625 -9.953125 C 11.648438 -11.160156 12.28125 -12.316406 12.28125 -13.421875 C 12.28125 -14.523438 11.894531 -15.078125 11.125 -15.078125 Z M 11.125 -15.078125 "/></g></g></g><g fill="#ef7e36" fill-opacity="1"><g transform="translate(252.011048, 211.356226)"><g><path d="M 1.265625 -0.40625 C 1.046875 -0.570312 0.867188 -0.753906 0.734375 -0.953125 C 0.597656 -1.160156 0.523438 -1.335938 0.515625 -1.484375 C 0.503906 -1.640625 0.535156 -1.828125 0.609375 -2.046875 C 0.679688 -2.265625 0.78125 -2.53125 0.90625 -2.84375 C 3.175781 -8.4375 4.3125 -12.191406 4.3125 -14.109375 C 4.28125 -14.640625 4.097656 -15.015625 3.765625 -15.234375 L 3.421875 -15.46875 C 3.328125 -15.550781 3.273438 -15.6875 3.265625 -15.875 C 3.253906 -16.070312 3.320312 -16.257812 3.46875 -16.4375 C 3.613281 -16.613281 3.804688 -16.769531 4.046875 -16.90625 C 4.523438 -17.164062 5.015625 -17.296875 5.515625 -17.296875 C 6.023438 -17.296875 6.421875 -17.238281 6.703125 -17.125 C 6.992188 -17.007812 7.238281 -16.859375 7.4375 -16.671875 C 7.851562 -16.273438 8.0625 -15.851562 8.0625 -15.40625 C 8.070312 -14.957031 8.023438 -14.503906 7.921875 -14.046875 C 7.816406 -13.585938 7.691406 -13.140625 7.546875 -12.703125 C 7.398438 -12.265625 7.253906 -11.847656 7.109375 -11.453125 C 6.972656 -11.054688 6.878906 -10.765625 6.828125 -10.578125 C 6.742188 -10.179688 6.710938 -9.9375 6.734375 -9.84375 C 7.003906 -10.070312 7.164062 -10.300781 7.21875 -10.53125 L 7.875 -11.765625 C 9.320312 -14.367188 10.734375 -16.09375 12.109375 -16.9375 C 12.515625 -17.175781 13 -17.296875 13.5625 -17.296875 C 14.125 -17.296875 14.578125 -17.097656 14.921875 -16.703125 C 15.265625 -16.304688 15.441406 -15.867188 15.453125 -15.390625 C 15.472656 -14.910156 15.441406 -14.507812 15.359375 -14.1875 C 15.273438 -13.875 15.148438 -13.578125 14.984375 -13.296875 C 14.617188 -12.671875 14.175781 -12.359375 13.65625 -12.359375 C 13.507812 -12.359375 13.375 -12.410156 13.25 -12.515625 L 12.875 -12.828125 C 12.507812 -13.148438 12.15625 -13.3125 11.8125 -13.3125 C 11.476562 -13.3125 11.066406 -13.085938 10.578125 -12.640625 C 10.097656 -12.203125 9.597656 -11.628906 9.078125 -10.921875 C 7.316406 -8.597656 5.878906 -5.992188 4.765625 -3.109375 L 4.03125 -1.171875 C 3.832031 -0.691406 3.660156 -0.347656 3.515625 -0.140625 C 3.378906 0.0664062 3.164062 0.171875 2.875 0.171875 C 2.59375 0.171875 2.3125 0.113281 2.03125 0 C 1.75 -0.101562 1.492188 -0.238281 1.265625 -0.40625 Z M 1.265625 -0.40625 "/></g></g></g></svg>